<mxfile host="www.draw.io" modified="2020-01-10T09:44:40.189Z" agent="Mozilla/5.0 (Windows NT 10.0; Win64; x64) AppleWebKit/537.36 (KHTML, like Gecko) Chrome/79.0.3945.88 Safari/537.36" etag="zCL-z-rpokKSbqfWwteL" version="12.5.1" type="github" pages="5">
  <diagram id="WOkOLmREaDWEzrVXO4gu" name="Page-1">
    <mxGraphModel dx="782" dy="469" grid="1" gridSize="11" guides="1" tooltips="1" connect="1" arrows="1" fold="1" page="1" pageScale="1" pageWidth="850" pageHeight="1100" background="none" math="0" shadow="0">
      <root>
        <mxCell id="0"/>
        <mxCell id="1" parent="0"/>
        <mxCell id="T-BZHEUO0suJNMSSYHIq-1" value="DISTANCE CONNECT LOGO" style="rounded=1;whiteSpace=wrap;html=1;" vertex="1" parent="1">
          <mxGeometry x="341" y="209" width="120" height="60" as="geometry"/>
        </mxCell>
        <mxCell id="T-BZHEUO0suJNMSSYHIq-2" value="More Value Per Connections Per Day!!!" style="text;html=1;strokeColor=none;fillColor=none;align=center;verticalAlign=middle;whiteSpace=wrap;rounded=0;" vertex="1" parent="1">
          <mxGeometry x="258.5" y="297" width="297" height="20" as="geometry"/>
        </mxCell>
        <mxCell id="T-BZHEUO0suJNMSSYHIq-3" value="E-mail :" style="text;html=1;strokeColor=none;fillColor=none;align=center;verticalAlign=middle;whiteSpace=wrap;rounded=0;" vertex="1" parent="1">
          <mxGeometry x="231" y="341" width="55" height="20" as="geometry"/>
        </mxCell>
        <mxCell id="T-BZHEUO0suJNMSSYHIq-4" value="" style="rounded=0;whiteSpace=wrap;html=1;" vertex="1" parent="1">
          <mxGeometry x="286" y="340" width="242" height="22" as="geometry"/>
        </mxCell>
        <mxCell id="T-BZHEUO0suJNMSSYHIq-5" value="Password:" style="text;html=1;strokeColor=none;fillColor=none;align=center;verticalAlign=middle;whiteSpace=wrap;rounded=0;" vertex="1" parent="1">
          <mxGeometry x="231" y="385" width="40" height="20" as="geometry"/>
        </mxCell>
        <mxCell id="T-BZHEUO0suJNMSSYHIq-6" value="" style="rounded=0;whiteSpace=wrap;html=1;" vertex="1" parent="1">
          <mxGeometry x="286" y="383" width="242" height="22" as="geometry"/>
        </mxCell>
        <mxCell id="T-BZHEUO0suJNMSSYHIq-8" value="" style="shape=image;verticalLabelPosition=bottom;labelBackgroundColor=#ffffff;verticalAlign=top;aspect=fixed;imageAspect=0;image=data:image/png,iVBORw0KGgoAAAANSUhEUgAAAlkAAACeCAYAAAABih9iAAAgAElEQVR4Ae2dy64lR9G2v5vwlfQNeerZnliMfQPcgOWWRx9CeAD8An9uGABCHASNOQ7BLUvGNm6waMQAZKl+ZVW9EW9ERtaqtdda+/haaldVZmQcnozMilWr9t7/M+k/ERABERABERABERCBsxP4n7NrlEIREAEREAEREAEREIFJRZaSQAREQAREQAREQAQuQEBF1gWgSqUIiIAIiIAIiIAIqMhSDoiACIiACIiACIjABQioyLoAVKkUAREQAREQAREQARVZygEREAEREAEREAERuAABFVkXgCqVIiACIiACIiACIqAiSzkgAiIgAiIgAiIgAhcgoCLrAlClUgREQAREQAREQARUZCkHREAEREAEREAEROACBFRkXQCqVIqACIiACIiACIjAyUXWxx9/PP3oRz+avvvd7+769/7770+/+c1vpv/+97+iLwIiIAIiIAIiIAIPlsBJRVYrsFpx9cMf/nAunD788MPp0L9f/OIX85if/vSn01dfffVgwSowERABERABERCBx03gpCKrPcFqBdbLly+nv//977v//elPf5oLrU8++eRx01f0IiACIiACIiACD5bASUXWd77znen58+fTF198cdS/v/3tb9O3v/3t6Y9//OODBavAREAEREAEREAEHjeBk4qs9957b/rlL385/fWvfz36XxvbvlrUfyIgAiIgAiIgAiLwEAmcVGR985vfnH72s59N7d2sY/+1se0F+O3/Xk7vf+3J9ORJ+/fO9LttYfVejMDvpnfmOXgyPfna+9PLi9mZps+/9/H02hsvdv77eHrv0ws6c+dVv5y+zqze+mz6fMvnDz8puX79rnzWIf9e/94/tyJ5YH20z22sr5f/9+a6Fz6Z3vn9A0Nwm+H8/p0Tud7c/nibmGT7egROKrL+93//d/rJT34y/eUvfzn6Xxv761//+oDXtPmoyJpZ+Ub75vT+5h31ANqie6z75jYRFVnFxJRN/5zeeysVo8MiKxVjXJjhfDi2NH6ZRhVZmx9ifH2qyDprAu4sspx/3ntvbn88a9xSdiMEVGTdCObzGRkv9NNtjHXf4iby6WfT63epEDgd83k0MJe3t54txmIsPyH61dtUqG3qOY/bm1pUZKnI2kyQC3WqyLoQWKltBFRk3bM8GBdCpwcy1q0i63S6Z9awt8jaIeeF1mP/+vXMc7RbHT2x19eFu6mdTVBF1tlQSlFP4IEVWVQM4B2i4deMWbY9Aq42O5JrG+Dn709vzrrTI2NrxztkT6Ynb4/fIvOCxuW337MgPyy2Zeyb/xefZPzubde5vM+WfO3y4JBu6p9vAnRdsYD+I5lgWDhykTD4SsuLBDyV6YsF/hqyvYNkY+anN/R1WrNBT1Tm98PMbnwq1Pryk6Fp6mVee6P3J8TIFxwvnuClJ0zmO/pxND9JIeur+km0+f55fseNx8NO8mciXo2HsX7rs+kZPSnr3/1iVp9Mv0p6gmsTzRn82ODaMzpiDqZp6tdQ/xUdr+F3fk97B9Znuf7z2mnvmtLYI4ostj+v89LeoVjYn+K9V17DrJ/bN+PlWaQ4533Zbce9z9uX/Wv7XdCOw5MnU94T4UWWneUOFlmFP2vMix3qv+n9EYHpeGcJPJwiixaKLUws/iepyNiUXQsU2+x4Ab25FlhNxnXmhRvt542LN5pcDG0VZuSHxbWMtw2l2vhYljfJkJKHdFP/15gB+x/jPI5JcCZe8E2+KxKoOLIbLwqtWADZjb8VRm/Ry/W5yCr0zIXW25/170CtslZosa+FHpOLEdpVXxh4LFyoDeU6Pk11YpQLJLPenzCz/ocRPpl+hSFcHDHb5g8zybapb2bDevjFd5Lr/XgxvRb0pnjTPByag2miXOe1s57bWmtk6UX0uOZ9XbD8NNx33pzexA/42L4DuH5ke29+zV+CZ9vB3s5YWG8sdjjG6+537n/LRf9BJor5CRWwQ0aNqfuwaGV9ztx4hP1uLMssc/yLnXFOLLyp/6b3R8ar8ztJ4IEUWZzk9NNvXHTY5kWy4RNPWoQH5df5pE1huMGZLv5UmTaMoZ6YN74hpvFhA6NNa9ge9barse7IjJ/Q8Sd+i38YC+khJr0n1MI32FBEpKcgNISLAzw94bbX3qACYR4Xb8x+I2YbreChpyGFX178sH7WQePJ3/mUCozXOM5RO9sPRUZWPE38pKkrUkZjya7zaLqJFfwk2cBodoXjZy78k6QrF9LjNnn8iwnzmZ8YLu0sO7LFOnpWns+8vnhv8HZfL6kA4H3HnqRT7nNRkdbn1k/vHmdvtNcUsbC/o8IE6/Wktc22iw+Ue/wwnrxf8X7HcXt7YIdY2vRTPK04q4usJU9ch+fA0hPn9kb3xz6F1XLHCDyMIuvzl8NfK+Cb5vqkhRdV2FCmaeJFbguRF1B8WhM+mZk8zbDZWhcl6beChMTN10rXKjdc6GarelROMVxHd/hEnBhQTMvmQhtpZcv8zBsVgeBTLiZwU2/9dEP2Gy8G0s12LSK4yPIbOOSpcMgFGNmJT0z466t2QyebWQfMVF/HzX3bY9l3i5W5jAols9tOOEZ+QraeM1uOJbSvCo1JXxxlRm1E6X9lw/TSU8iqzeKimBoDkjVOJkuMh7xeTi9HP7Frees3Yl+L/ZqztYynLzSeb8Kze7yGqjWzxnCUvemYWGjNUhHD++GyX5Fc5afFOFrbNB5cbH64OEp7TJMhRiiEXn4eX5MwVSTb+b1p1+fWdNGJ88/x0f7K/JLfF9kfyT+d3k0CJxVZ3/rWt6Yf/OAHR//6hvZnddqvcPjtb397gAovymLhlaN5DD9CXhaGL5RqQdFY20RoAVkbDFNf8dWCPbbGEzPbhNiv6jwvYtjjT29RxuOK7Rjpm/6Y41gHxZkZ0Ia2bCIku4cJHBwduZigGz7fuLunM+ErouWJBsv3N2C6WZON2SW6cefiLD+5YhvmU9ZXxkn2qwKAGJgP1FYVNqUZa6SCg1mZr+QP9xfnsz8bjBaTpA/xkf8WU6GHmfbzZgHNJyxr/Auf+yeZUQ+ufD3ENYoPSNyPGz/G+nq77r4DTX48xp6PWs54bLcvNRHamxCLj8Gecurapv01FyP5id7W3pE/HCf/Ob5uT8r7VxqL2Bdq8f89D/QTl6z/0vsjXNDxzhI4qcj68Y9/PBdL7Y8+//nPf95VbLUC6/vf//70jW98Y/4t8dtkthZlHOkLIG6IvuCWjcI3vzMUWbyAtjaFtcg67CN8x6YWY2xXriPKeFyxHRoO9W/pDu+pHNpEjmQC/4ZHuhnz12he4BRPZcKN9eaKrBbD5o0eBUYOlmOsZKr+qi3r3XUdC665kGHdgWXPel+RlZ/6MSf6CrUosnyeSW4Ql8v2fsaiK36VGNTtyN/rFFm+/qp9h57i5PVFzvna73W4flr/R8QS1vhcxNDeC5926MN+C0bk/vw01d/Jyh/2qFA5sJf6k8AdY1os7DdiYceo/+JFFtkCq9GxZsiO6/w+EDipyPr000+n999/fy602pOpvf9agdV+2/u///3vA4xooXeffGgofQprCcsLxTemZfPx6yi3aCN7thhpIVsbbFNf9ekKYjiSn+wjuvcc3X/aTMNPQ8V26PRNOG9ukBgXcGEDzgx405gZHMnEzddnfMO3Jy2Dm3StYW7l4qd/IkJPWsjGPLC48cOM39QHN20ai5t8b3uaJo7xQJFlT30OjVmd3I57FSI/F/3Eo/IHAHDsxqODjiTz9Q+psGP9JIM4d/m/mnHZwwUZeUanlLvtRs9rmvIcNz9fi/1e4uvtuvsOubWeHmMvrNkdsTQT7vM70+8oXt+riA+z6V0dtND+2u3n1Jf3mFIbybf4wpjsJ10HuVXxzn3Z+ec9dkM/ceyeql2LYQlDjXeYwElF1r/+9a/ps88+m/7whz9M7WnWz3/+84P/2m95f/HixdT+SPRXX311AA0vpHFx4JtDTn7eONY+WlBhE22e8IKwxbixgMIj7rF/FiTrv+YCGy50igs3AbPL71RZXN6Ls6HurfFdTPvmDDYPHrmY4AKouCFv6fIbcPXiMxUVbKMp3LATiyzSwYVD08Ex5L7ZaSo6ive5St8P6lxp7JHrYtz2Z9Xsh268d/kZ8XnrY/sFs6HorPRUbaaUdcZfvYEizUT3nGytoaLP18vhIou/jtu37/QOX9detx8UsczWuN1+epH3tVPX9vb4rX28o9HtOyTR9bHdrXtEP4+kdfgtQiho8/666QuzZUs6f0gETiqyGohWaH3xxRdz0dQKpz3//vGPf0z/+c9/dnDkxTFOSF+c6QVUTnB74ZGKJrwrNXvCtviTEcnnBdTG0cYUPk0F2+7XyFfeQPsfVXZULOefMFt/9N/7Ru2uE2dj3RsMOE4Ujkcygf3yyEVCKIC4EIiFkxc/7Wujm/u6kO0eLB5ysFRM8NeiXOSFduZSFm5ugP3q3t9iPfzTkyN/gvz6gjrJbhU3wY/5a8j0BLDUs2+eF977ZJETTmg9G+VtWlsoWsbrpfhwxx9UwtP2uD7DHpIcPMrekbEspmid4ys7rGn4MtLL+0DYVzGwHTnWYj8POrg/+dV8Gsoye38ayewCY44nzAv7vZyzDt9fWx/5l+8R7CdYsk2WZ9khw94vtdxtAicXWZcN78CihPGUnPV33PQJZihPv7vFkn9jAa32efH1tsnuLM8x4R0sOppdBJeOvEDXjdAW/DCuVT8WeVJpl0PdGwzYJuk/jol50J/wTT0UWU2UnmRU7w5R8VE+DTJrpCfbKG/8y0AvGlAskJ7Kn6zb7Gd91TtF6Ssw5kJxJpXrZSw+8NVlPobC8ND7ZYOCbKvICgVj45P9HrHmWCuuQc+BOQiymdaBtbmut+sVWelJOYqYfNxY/7ymbM2vIfiHN+w3x8UCEq5n2TOynSbHfhze76B5Hkm/J4uLKJIp9iC2wf5kX1nOzmlP2iPP+smr5bTwbZG/xf2xc1INd43AwyiyZqqU6Ni42oZFRQA2x2USsnxb9LQx2WZHctZWTCPZsQW+IV9tVNG/wsbcRD6uceaNod9MsPGOdKJ9pHuDAcdNG9qskft4TmBuz5FvsIMixYsdL062CobcF4q1bGN04w+/gRxF1hJQ5c9m8cEcOF4UFFVhwHJVP+vEOY+B7vK31mNA+qoTY45gRJq6oribhw3WTU/PNRWeZKyXjU87SbQ7rdcPrY11XfMaHq/BvPZoLdn67XV3TqXiZq+9vbGYvVBIDAqhJnyttU1xdu9kmQfxyRD2jYE8zwH23cbG444xdPJtLinmzJW9ik/iuAilOc17PnO6xP4YHdTVHSRwx4usmyZGiyUviJt2RfZEQAREQAREQATuNYHHV2TxJ4v06Yg/5ex7qnSv517Oi4AIiIAIiIAIXJDA4yuyGkx6PIxHzOGYH/lecAKkWgREQAREQARE4GESeJxF1jyX9NWgfe/vPwX4MKdbUYmACIiACIiACNwUgUdcZN0UYtkRAREQAREQARF4jARUZD3GWVfMIiACIiACIiACFyegIuviiGVABERABERABETgMRJQkfUYZ10xi4AIiIAIiIAIXJyAiqyLI5YBERABERABERCBx0hARdZjnHXFLAIiIAIiIAIicHECKrIujlgGREAEREAEREAEHiMBFVmPcdYVswiIgAiIgAiIwMUJnFxkVX+I9TX8Idl2zH9MdjOkl9PXMfaocZtKb7Hzn9N7b/kfLQ5cEOfeP+5bRPH59z6eoNP+2O6BP7JbqFGTCIiACIiACIjABQhcvshai4nXv/fPHe4/wiJr5WNF0g5KEFGRBRI6ioAIiIAIiMDdI3DGIuvj6b1PU4D0VOW1N4r+JD5ND7nI+mT6VYqXi6TX3uj7k3h3yeOtSCPm+wrbTq0aREAEREAEREAEzkDgskXWNE1cCDy+mz5/XVgXUfx1qxVKOyeW2R47dqcJiYmACIiACIiACFyTwMWLrImerLz29stQdLXCwIqM+d2k9CTr08+m1/HuUvWOFun2Ao50YOzGUyIuVLr3m9h+pYPst9j6/w4XWWzfYyAuFkP/JJDHWpFFPrG+xbeCDXFlfVU8NldvvJjMXh+0WkRABERABERABKZputUi6/W3/MXt5aZORcB68/cbe19keN/6lIgKDBRMfszjyZYVMvSSeme/Lyw6+11KXaPICoUd+QMfqZjjosiKHmLARRbLOhPXv4xnJvnJG/WRD13IahABERABERABEZgJXLzI4pt7u+nzdf8eEt3I8YRlUDSE97eqp2CYYC5aoHOKT4q4GPHC6cU0t5P9+HSHfB0WHYeLLLb39Q9Znou6up1ZbhZZzICfyBXt0R9AnCZ+Imm2qFunIiACIiACIiACkcBliywuUNYX37kw4OJmcYsKFyuIqrbipv/pP6fPY2x25YXD+nSGi4uuQKKCZvaBrrlAodjGRcdg7OoZs5gLTtK5hw2PNx8KHR5/fppXcaSvaImN68hPuAyzTkRABERABERABIjAGYss/+qp+joKRUNZGJhDdUHlY7xI2L7pc3HDfq3ji0LEXChO3L4/Xdq2DyUjP9in5bwVSW7H44Smdsw2Xd794idOC3P2YU+BVMnTvFDhxb7pXAREQAREQAREIBK4fJFlT6QWw2VhYD7RzZzH0ZOnpXAgObrps+6q0MOvkWA5ewJkPhQnO+33I7lg6Qur2Ufy34uoQ0XW0l/G0RWQxIqZ9s5ai+vti9JdvEyTTkRABERABETg8RI4Y5FVFwYZrd/A6emLCY0KAipWWqFghQTZtDZ/MgS1brMvGvCEDbL1cWS/ioE10Dj+qpFF6Hx/kbU8kfK4yA/icL0nWdM0paLS/drzJIwC0qkIiIAIiIAIPGIC96TIil+lvY4/VUNPZrwQoMJrndiuj4qI+DJ7G1AXRl7QfDxV9uscqnXVsvH9qL746wtQ92mryOKvGXs2/deLicFbH9uv0eh9GkaiDhEQAREQARF49ATuTZHFT1fwVSDf9L2QWn8qEFPLBRX91vmRPBcurP+QfZiLxyOLrFDgUeE0aGdf7Wu87klWfDIVf6KTCrf0pI11L7y9QPvd20+mJ0+Wf+/8PkasKxEQAREQAREQgYXA/SmyUqGB96tsIkMxNXj/iYqs8Csg8Duo+EhPyRYbXDA1/V50mA/dCY/Z+VXboTjoHS4uhDaLrPSb91Gk8tHGI4bsB/FQkQVIOoqACIiACIjAmMA9KrL4K8MX02t00/fw+MnMWmg1OSoYwtOpQfHRFRwwQE+JavsQxPEaRdY6lJ+05SdJ0H5MkbWMGfCBwnRkH5ibiqwESpciIAIiIAIiUBA4ucgqdD7gJi9SuOh4sAFbUbnnqd2DpaDAREAEREAEROBaBFRkHYHNnxzt/OrvCN13T5SewtFXlHfPT3kkAiIgAiIgAneTgIqsg/PiT6/wDtODfoplT6/wXpueYh1MEQmIgAiIgAiIQEFARVYBJTalIuuhP9VJRdbw/bQISVciIAIiIAIiIAKJgIqsBESXIiACIiACIiACInAOAiqyzkFROkRABERABERABEQgEVCRlYDoUgREQAREQAREQATOQUBF1jkoSocIiIAIiIAIiIAIJAIqshIQXYqACIiACIiACIjAOQioyDoHRekQAREQAREQAREQgURARVYCoksREAEREAEREAEROAcBFVnnoCgdIiACIiACIiACIpAIqMhKQHQpAiIgAiIgAiIgAucgoCLrHBSlQwREQAREQAREQAQSARVZCYguRUAEREAEREAEROAcBFRknYOidIiACIiACIiACIhAIqAiKwHRpQiIgAiIgAiIgAicg4CKrHNQlA4REAEREAEREAERSARUZCUguhQBERABERABERCBcxBQkXUOitIhAiIgAiIgAiIgAonA6UXWi2fT1dXVxr9n00fJqC5F4P4QeDU9f3fJ72cvVq+/fD49nXNeuX1/5vFET29xzj/6YMm/p89fnRjE/Rp+X+N+9fzpfD+8kfnC/ffd59Pjyo77k8s3UGSlG9T9YWOenrTYsTlfcBGc5J9FqZNGoGf5gIss5OaVisWQ/RWXqi0MutxFn5OXs3VQM27qHxz66Fysm4PKo8Cdiju6tnl1kSJrxB3tF7y/bAarzoMEzldklZP80fQMT7nK/oP+3QmBkxY7NucLxn+Sf3eC8N1xomdZ3Cwwp/e9OHkocZw7fSouVdu57Q709Tk5ELyJZtzUVWQNaavIGqJ5lB0XLrKmacKivO83pOumBzbnCxZZ13VN4/YQeMBF1p7wJbMQwDq+hX3sfhZZpyfOnYr7iHBUZB0B6xGIXr7ISpsTFs5VVXQcKMgwdv6ueyCLBOf3xOxdmjyhpgPvlLWvTfD07en0/MtlQLDLOrrxV5Pb8psz+3LVbdKwBx+upopN8MHsLl/zhL7ZP7fd/EG/+VF+CvUxkGucjWc5ZvL+Lq5pmmzuneVkfLfidV+cJ8CDF+tEXzv62PhOBMZdTVvtYOUyrs98sbi2v2YLutKcwWPIgPnV1Sgu5unszCcoxNF8dNmrPIcmE/Ooyr96Lovc2vIfvtFxT/yQCfmIJ+QWk88TWJZsLOb9XGZ3bVye895uyY9i5lPEBp+r+YfMnJPmx+p/tY+uBmztgtUV70+rEPKy0GPjZ8a+ftzXeq9aNDuXfh4KXYX968bNfOfzzKzxsLxZpU2mzW/vXx9DG+cxLkyWtQtuvod0HnmD2R3lY+/LbAu8wvxl2dFekuXqeQz8Yafa5z0anRUELl9kYXKQFJZUfQKESS2ctf53lxcLl8TGppcTnpK2WFRYCGHDoM2INzuzSy+eoq0cPy/gkT/wl5/yJV9nPyIf2HtaxG595t/INtkJm0yx6AKLYlOy+fGxeSMyxrCFXMi6u3jd/6zTi7TIx9xpW9/64mnYSC3vUizWvszLFkvzJY1h23xuuoo58zhoTohL3qAtJpJB7h0jG4r8HIdd92zNPuayuBHBn3bMPjGX5dzzhsfhnMeDI/q64wfP/LWExMfmjPMiycz6sD8154wDrdXNtmoOe4aRwXb87Dfij2ufbWZbvn46Vi12m0Pagzj+1dE45wN/i3HLcPeBY/FvNth/nMc4jo87Em5XFsPuOYcv/THEYfnQy2GeOId7zw74ZsXMAe7YU999uv4wTvYnMj2dP62JKii1dQQuXGR5gnjC+eLztuYXZFNSkMtYdG3jCAlPLyx3nyJpMdgYags+UPtmkWVyydeqHW15M0L7zlj2xO6xOOPMyjcd9911xwXk7WljpjmZZ2796aewedOnvJk7xTuS87lz/23OzObhPKlukh5324QoTtuklp/OQcwVS/PFYiE95p+fQFeeg/AJmG94bSj84SdC1paKF/OD1oPJ+vwuHjlT42/jEYfLePxttLcvDPzadCHsoX0IRH17xjNH9ivOKcdb+Ye8IVazS0V7x6UuvMyvNIej9kAAHwTSvmAxUbvpywWS7ZnxSYTLMxPOLWKA+SJ78NN84fggz20YEI4+B/26yfuJy/oekJ6SBns+ZywfzM8XLmc+jNptztP+QLnvtshf3kv4PnTogwY4dnLuc1gbkA8c4py6fy3IQg/FGHkQa8oDzyPKlx6yWg4QOF+RVX1SQBtNXPPHFi+3I4m4LTlvk54TzRIKN4s0ELrXcaansgVZuslB3jZ4JGs1fjb9anq1ftVoN/wkCwamM7iMReybJHwIC28dgz7XhfF5M2sDfPHNCw2xFMUe31wru+ayMSP+pndpQ7xxI4CG5BNtbHkzcP+dDbT4EfpcZmH0bHo+39xyuxcvWyzNlxSb241n0NWxw/iUExgNVpjPoZ42AOxTbpuvUDofwWWdJ/jBNwroY9+yHK5Zhuxk/6lrOT1yvMXf2UM8Pn9mK8exYbPzF7LMpWiDXzXrVpi9Gv5Y/XgsYvK1BNly7ZhfyGmMr2+MiNV0ZU4GkPZp3m8hz200xk99DwKfzrYL9/sSFyzdvHPRi7iDsuUCbIrx8AVrzPbpah9EzMgH6KV7hFv3uE23d9qZzWnFsdIPH7I82gtfECPmGte1X/DbeW76aJHo5BCBmymy8iewIokwoXUCLGEMZSzR8qPSfN02LiRTsTHPZrBJ9cnmvkGG9fumGKAj1rDQ3YfycT6KU/qUM4ydNiP3z/Vjg3OfUp+xq/3HwuwKBVdYbpB53Jb/TVXsTz6Wtnx+Qvd6AX1L/Ot8tTlY411YwY7rwrhNlphTbLqVA11MLmRsaJ7LPJhzxnOtn0vXudzQXbbUR/ZmXWUc0OFMzN91g7dr0lfaCznvvh47vp8T6Op9RY/dNEsfMO+8fukDScWlaKvi8LwxTw6f2Bpkf5z/OP6m2mOZbRd+BgdyP2wXnCw+vrFDntuCAVy4X8jb7TjyHtBfQ/NydP37mLt8yFXEkbmwsdRnXApmbRj6x365L2DD5nhOrX/EHe2VL6HPbYb4izUMvw/NV/RZVyMC5yuyqkluVjHR6RNCnMCNzZI8j2Oog2xsJ1AssiyBSZUn+KFNDj7zxrieMwssUG6jjXHbXy8Eh7GXN3NfUH2MqQ/sgn8EBP3YjKiLT7GxLMVYskHx9v4sWrbHsyVw9/nhXjtnv9c5WDaPdXyLF3NDxVLPOcfCn6LrwhQ+9LqWHou12OBCPsxzsjPeWTVki5xMtuZ5KOJvaqLfiN95H+c/aPjx2PHRH9ez+VQTsVFeH7SLHMdYygsr2riNbqhh3lbWo1xfIjg0V84b8Y/0oX/Ob+Q9xc3EOmYb8sYLXJoiyHNbNLBeIW/wRC1f94OyPcS1K+5e3dxiOlP+23whjmrOoTP1mU6Mhdx6RD+KldTdVtj6DqHPcZZB7KZjxB3t1XyHPudvsQ+YwGbnQ3ZS17sIXL7Iok07PA1BArRExXmVKBTGcNJ3jl9UebIhmchEuQCGdsNALJzlBme6sUBDbO7DaAMJqomh6SWB3r8t/akP7NLNAyFOB4wAABvSSURBVOqxYYS5QycfOU6cm063Wfnf1MQYXL7nA87jDWp2Cz68+3z6qPyK8Nn0EWKnzTL60TQVvkC3xccg/LzXtfTtZjqLI17crFx/fwbZA2wwcBQHuLSchQzl73H+w5gfjx0/4rh5s0p+m835xpKKY8SLPMBYnt+qzUOys007JoV5SnvF3I988zkcx98GQH79QIZY2HezW3xAgDzNL8QtFnBpHZDnNgwIR/drWcN+vW8PyHtCUN7Hnbu7Avgacw6dae6NS8GsDUH/KE7P29Gadla2/424o73yJfQVOhHf4Lidd4NBau4I3F6RZdX8s+nZzj8bMZ5037QsKTlULJI1EaEH31WzqG0i9B035LFosIiqwqPrS7Zhy+SqxUFFB+LJPkBPO/Z9Wwsq9cG/9KRx0e+yVazsg2/2T6dnH6w//Ukb8Xa8/fz1Ma3WzF+/CUU/cAXfn05P5z+L45ssfMFPAYFxG9nbhR7aEM0H1wmrfOx1rb02fhADNseVH/SUcwDZ9aa6KWs35NWu+ZHjwHz4XCL35whs3D7/mcl1xiOm4MOsyP3Er1sxW/AxrfleR3FTxFguVLq2Ddu2tw34dLrM65aB61MOnxPEX+5Xpgu2MJ7yldQj902XjXd7EDe7tI5tf+Q2DAjHft10toN877fZr/ZI8xtxB2XzBcZfe86h0mytjOy6su1xV3ahEr6Va7rSj3WeuaO9YpT6tvn73of9ED5uxYF4dBwTuHiRZRNb3MQxicvjyypho+OQryYdffxTgfNoS1j/6s0f/dN7GE2YZFkPdJtdkkNCLp4WC8xk0yZm7ckHutHzT8F1PhCavs/9iP61QX0fxnPMTdLbex/JvJ3yXLc5DbaH8bo/tvHTp0Fm4Deg9gRgf77M+cWbE/uS9CBmm+uCl+dJmlMjsZz0uiBAMfONvHVjY2R+1OZ+xXw11iNZisM4G4c+jjiXmfWR/iNsOx43fswRN+bsH7FJRZbFDl+Il93wKi5FG/wa6+y5zmZNV1ojPEeUl2anPYXjPLaC7ISfLiQdnFth/tkmeFU3dTCdjz7HlpsUd4zDZZnlsXEH87x/ZV8RA/M034o56/rI37R+2WfmmX3jdR7lkNNpruHzKJbc3gzmMRZH0s2sKB7EEv3rIlHDAQLnK7IG3+/a979bSdDGVv3J+e1J58Qv3knhjSLcxJOs/b4R37gru2iz+EL8tFA5sWcZ6sMiCGPhj9tvGGCvSvi+z1nYBmcsqz5a2MkXPO2Jm6IpiychVooTUkfE64UMeORj5AMT4Uj2IjdnkPNuF0uLs4iRHOh1USfd3Kociv76/O+RDTfINJ+haN2Kw/pGa3OcM83H7D9HvpzvHz/mCB1FLsB/7Cu47nhQXmGPMFma38020kH6txggpmo+lzaP6RjZhS3lN/ljthDnOikH9bM8ralZH/h2E+w+hD0ojw/+ecxN3UG/qBDtzLcGm7N6fmb/EZvJ0pxDadVnbWPdW/PfVO9ep004cwN3tOMaPvMY7oN84I4Yav6H4mCTOu8J3EiRFRZZ8AGb5J5N2Rfd1qRXiTu0nxNuTkb45AmHxd7ZrRYaFi3FifHLJpcXMewh0eubGnR0PtBm5H2DDW72adTn7diMGzfjWcRFIa6npGMoX8Q7ks3zM3/Kwnifn94PtIxlRzz7do/J8sjmPc8l7C7HXlfsb1eQAfPNJ3RmF7mywaCT7T+9+k2oisPj9rw60f9++K74waj3Yzy/FhvfYComrR/tkMU1fao3fdy2xgP/ds0hMejHLU+20I58w3WL39YjbpLwmfTitJMdFiU+14gh2ArrM8kO7bsc4oBf8Yn0msvBxiJ53bjdzqDQ2jvnUFTlw9znMVbc+nyFQjqabqzp0b0w2QJ37JG4JtVWmHV9WDduM3/YbGqYP6vV+XEETi+yjrOXpDHZGzeLNOLyl/CpuvFc3vpds4CNeteGQV939BvrXYtM/oiACFyOgBcF2gsuR1ma7z6BWy2ycAOvquiLokP1z++9zAZ9Y9j19dhFnbwp5RRz/sRjnHYWwSavAvWmZk92ROBuEvB9RUXW3ZwheXUzBG6hyPLFh0est7EIrcDDY/dw3FlU3Mwc3YAVPL2jx8fMo3iUz07hsTLmc99TL9agcxEQgQdDwD5stf3kse2lD2YWFciZCNx6kXWrN+Ti+/Abf6p2pok8h5pcLLWiaU8BHMYdKMjO4ad0iIAI3GECVGTd6v5+hxHJtcdD4BaKrMcDV5GKgAiIgAiIgAg8XgIqsh7v3CtyERABERABERCBCxJQkXVBuFItAiIgAiIgAiLweAmoyHq8c6/IRUAEREAEREAELkhARdYF4Uq1CIiACIiACIjA4yWgIuvxzr0iFwEREAEREAERuCABFVkXhCvVIiACIiACIiACj5eAiqzHO/eKXAREQAREQARE4IIEVGRdEK5Un4eA/Xb+zV906r+1fs8vUD2PZ7UW+Hv8L2L0v4Zw9hjwCyLzn06qQzhLKzgc+qW2/sts9dvBzwL+JpXcQl6dGh7y7fj1eYJlcJr/ksYD+LNjiOcG95MT6N/qUBVZI/z4bfA3mETl4kcy5wID7Tfo3wjVpdvtZp0ZBMMqsgKOfHFL+YKcHv4lBayznX9dIIel61smcEt5tTvqwj/k5M0VWb43LX967B4VWeCX9160P4L7z5xr2KeuEa+KrNFqPQHqSOWh9nLxI5kfcZKryDqUOTv6kUfX2CR2aB+LYB0Niijk/LAIG2tWz10gcFt5tTf2wj/k3I0VWbYG7lFxBb7g94jvPzMKzOE19k8VWUimfDwBalZ10vUoyU9Ser8Gq8g6w3whj66xSZxq3ebvKt1k4JP+iPCpiG9vPObwFvLqukHfWpF1jxgZW8yviqzpafuq9xpzeLYiyzfS9pfXl3/deyUoXObNNj9CLf4Y8bHylhm97gpOWGxIpqtvT//vXY8BsVzhBgG5ArYxsISM79jAnuk0ucVx9C+fsIoYeJL3+LHOQ7PXzcXKCjbNJ8RpLDdObH6IV4ppmo5jUFnruVZSzquLdY+fJtMKAdcFLp3O2QWPbZFb3imCv/mT8mHWrq/Zgx74cNWxXTkgF2i+s+0JMjlv0d7Gkv7O9kYOVbMR25yn++Wxst02bpdt+J3j4fEUT/SHrmzePYfruZ4mY7iXc6f78DtnFnvhO/LHGDKDvbYwhmKI8fq8xPbGDPNIcUDfPA8+ltcD0V5OO1+vJospCxeynV/BB/i47nmhb1EeOGb9RT7BJZubITtI+hG2bA3PY5cPG+ibY4efaf/dZdNiqPauYq7g/0asPte+LuYYMAb+ztfOfHPeLX9IJ/Q5suXMYnLZY3Ik7ylZPV9jHnyOiBndv7y/+ZQ+MLLCdH6GIisvLIcyO8WbRQEuOh43+ulY+RYcJh+JFI4Mb5oA9+m7T60wvLpQkdXFCb+Ij/nz/BVtaIknkhJx4nqe2CPmokp4+LTjhlotfo+RE/CAT80mMUj5uUT1fJ2fTTlf6LwJb/rJ7HbkGuvdyk3kk28K7psz8nl1vc4KOjr5xAA508llrlW+oC08SXIfDuqsJmvQ5vOw5Ea+XoYdYRu+8xyutk13YpVdMznKe8Tsc7eMOppzoXPRHfegoU+F7/DBfAODnbYwHjGGo9nzOfC8hJfIY4oBPrz7dPmkX/hi/nIBXMjlD8K752fgw+y/9T2f2q7a/gOH4RoL66GNcCaBGWIwdot+/j9sxXHLGkBf9AN75xE2D+5dT6dnH/A9zveezNx9x1yTbIsX6824juadcqQphTyYhWOU3Zp3s786uil7sBAaxLj6tuT/aB4wT05sdHZykYVEucqJSVBtsYZkGIM9i3xIfAKFJKHF1haA2QQp+Erycxfiyu28gZhtsptseHI4B7DkTcmS03SuDhZ+YHxORC4IEKfZT3GM2oElMLjKn0Apac3f4xgEO+uF+WQ6Kym3jRj505i3tbGFLOZ7XmC8gMh/Y0VtaSHbHBAb89/GL/737aw35qTJ8joznz2HZs1Ve84Xk4l2zP/ka5VD1SyM2yi2D55Nz9aNjHPdbHOMTSF85zWEtuxnuQ4LrzCe5mmWqrhY2xGcW3zBN8+5rQ8VNs9FroOPMaMYDtraHYPPU1wzjQ5iIA7sw3AtQB7jY865XmonvRZvc8HiqGU7ttBDcwGOc+ETOLt/zNPkSccwV+aO9D/4nMabXs7rdaj3gd3agXh4DPR3exfF0/o4VtOT9CfXbe3x2CZj43fkOfmXc8riNDbuc5Qt2s2HHIPncIg5xWZrzWwvAmU7YkiySWV5eWKRVQROZjpn4SgnCMkbcEzokfKdPdJdLeTOHsvDdoaKic3t5ea+Ndk9O/gTNhXYAxP4iHbzA/q4QIAwLYpVD1gFWyQ+ffnKPvlxczuHn2UCg5vdKI9jkG21a/gaPw2mT1jrTTsUzPDFGLl26LT4IVvlJljjJmKyeXHP3k7P16+bobuz5W4sZ8b6SFbwK+cGzZFtVJBtLMx/ulHNnhyXQzmMg9fwAXMV5gW2s0+LVjC0mx90BR1JtuACHzdzGLoxPl9DyRZny38X7mLwLjszGdi2Hl93yCu/0fV5aHrAB3OOa9K7nL6aXn3ZzjwHLXdMFnNE9sCmiJd1LT5j/GCPata/XJ43XWt+sD7NX9r3KG7TTW02BJwsngM+I/5ivjqdyZ750Y2FzZ1rwXzu5S0POjZb82yeezGVfUTcxsnHmM01Xlxb3roo5RtyCrHvz5E+T5uBw3rAvx9fjAXjNIchlMHFaUUWDHcTuFrL/fk6O2UTtwI+Uh7Q6snsN6lNedjOUOFjbudiwBJyK5H7vtIf2DOdKzS0ww9c4wY2PK5sK/lsI8/PfN37HcVyf75m6a0+l8MiPbrIchW0mFNxhpgx31Uupz7zB+yDHS8KLQ93s97isdXXHMDGEOPrfKCvdawP/ld+lnk03gChqj56DKEYbsKJcTc+98PXYg5sfjC3nTJn1W+wJGzFL7Xt5uxfT9noDZ8hs+V7tz9s6ev6PGZfR9U8+hz1bKADN8S6iEEs7WjxzPPkut0H0mUDYacvGkyknWB+ulhJqujrOJJ4VxhifLkOeK1VLFfFyN2Uq0M/IF/tRXPcz9evZlebG/LGv1gLsN/PMwFB/Hk82lNM88jQV805c/PzZT+q5LdzxHPJdXHbZnwIFT6HeSa7YFzFCx2D42lFFhwbGsZiWZ095Cj6kVy4HulH/yzvkzOCmhMOSdbdbBos6M62N2LO+nnB9j71/pb+wN6hJIdcSJIq6Wgz2BhTMpmTKM1pkVgxjj5OH7LVR1KXeiersQJXzDdyz817Lqx9/TyzsN9YAsNdrLd41H1gzZsKn5sPpX3aRFoIpcyBHIqhH76CjSPW1aI05d1ID9/YMbedV0lX1983HM05x9dUbvgMi1u5BR+6Od1tC3EXc2o66jxb/MN4yhvENGKN/kI/5+lyjr2psANA1bGzQUJFHzj2e/Ia5QcLn5kzxh+zr5L5+RR7izEo7PAY2EzyLpL4QH+xd+3JpxGH2R58yfOL9srH0Of51M93zEPLa3qa2o/JORJ19PJbhTo4jnRQnoNxFa9PTHl2niKrmNzZGhxDf77OLmFyriXvk+mTFQ1gcaE/Xwdp+JqhwsfcXm7u7lOfyH1f6Q/sHUpyyBV+hbi2LqBj3lAowcIYT8w+piaY48rXrGyrz+W2NgqX6v2ycXM8WJzrCMQKrphv5J4rHhdZA9awizxjVXYO+4H1Fo++D/kybyzJl84HtvfBR/6VL4+DDLeZw2c6GdlAe8W/mc7zA/nCV8RuBXTnep8rnQg1XItz4dftF1kU1HzqHFoOLfna55mPgjztDRvz0MbZXFQ8ZsVub87jeT3CztYN0r3a5Fr4h/ms16f7M/cX48nyvlPkbmIw9AM2964F6C/kjT/2OfIY9ut9fBWEL3k82lNM86jQ5zw37ZBf/anr6HOEcrEfuNHiOea5D3HYI91gXMWLYYPjaUUWPTqvANoEwzE4Wr33Qu832OZ4pHxnLwTtUOErkqxcbLAN36EL7UVCQ5/53xUcUNKOmEjfSDA++IOEPZjkfXxszW5Sczy9bZfd6luk4KfH6aPNjn1Xv6Vvq8912rxmBi4Svi7bM7/Qaaw35tVjWgs1k6VFaL54TItuv4ZfJtrlwLlk/atxs4k8snz2fDEGB9azcTAdHsnus84PjHR/zGd0VTdrm4NUPFf7COnB6WYOw8d5jW/NyR7OsLjvSda4YHA/bL7gZzUfqQ/5Xq3Z3Ac2ZgchGHPKe9ix9Q7hdkw+Q3aHv/Ch8tcYYQ8+Qm/zynRXfnQxbuflrjUBncke/Og4H1iHNl/QB/3gQVNgssXeCfvVejMVYJvHox0+2IA+z82HSpbmY/bjCL3wv8wRyz3KVfZxg5m/ekF7C+QHMbDqfH5ikUUJmxcZYHFBBUfDp/fFJZuIc8mHpPDFbi/O0uT2SV58cjZyvuh4HPvvk+52+0Tu+5A0rNc2lDy54EvtGN/9pCdxh273lxKpxWiyg+RsMrBtn34Bx9lclwE08dF8DXPKEu3cbYO18SBG8yjy3/y0uBOPNqDr87nLvy/FbBIb8z9vgqYXrF0vYvAoc59fWwyrsNvD0wmaM2ZhHGB/Yz2br9A5tu8+F2ewyX6sYs7O/Zm7MIb3Bppv5HST5dgzl+AN6eTxPtf48DOOk22ZDugt4rN1U/XBOeLMOeBswH8wp9CT/Rjo7QqhwJDXgq+vsL/ATvG02H3GfLoO47X6a7JY46Q3yFZxQLbiWvSZreYz7M1+uH/VfSLE3eTJl+Aj5gBHyCX/4Ec1Fn2dTcTDawH68/7CcxniXByDDc4zuGxH2Eu+b+ZyHmP+Zd683yDXfA4yF/hrcwY7tNcuftOazX4jMPIpxk9juaYxefgJRYePJxdZvEjnR3nzYqPvOHlyzdGn09PyF36mSThWvsVL4Ht/sNgXMJi0PJlzr9lGLA4X43r9q6zF7BMWJ7JZ6PugN/iT40HSoB3Xs9Ous/TN/GrCnsyHZWfl4X98g+nHO6sqTlfk/vZ8SOq672R1c4i5pCOYmCz7vvpQ9Vkb6Uq57/O4l/UWj6IPOZDs8nyYD5AN+UKbnLW7HdZj5+BF+Wubnk/Z+GzgxzJgr+1FGuvFfMsczNfana3xxq0Nhc9ZP12bPGSNJ9ne6jOxAwz4hrKlr+jbijd8WDiY27SPwg6xyPNhbPimX8qTXvoQnPW1a9Zp87OT+TaHtp6jH7yHVb4czH/wTP7BjxDL3jzg3Ib+SxZZmC/EgHnHtflN64X7IA894Rh5b99bjpEt9nLyE/zLOZ39I1vGGPv9tm4yM52hyFrU9WDIQVg0RxcHc5DdjfZYedipCghOylUO9uskpxvQDJyh9hth02EMzJbLdbHRTQp9tT+uY04GJC6SFtcWe/o0vyYzbJDYfGo+U9KPZPNY/iSHRO1Zuv+93q0+t2Y+Glfv8zMvZIIdyyEsjvX3uqAd/HBdbFQeJ+dAs+z+c/zwN7NAO2TbMfhK+mJ7tBX6kAc0f/Omj3YwwzXiNXAcg8d3jK8HbzJma7ABc395Iy72knkM+77Mb70OkwG+tHlHfgxsgd+1Oe+LfXHNcxm50ua82x/gUzenG7a6eNMHW7CBbou35Qb8IkaQaz50ukkOeucj9IB5/l1LJLxHJ/tAQ+fToo85dnlesVx1drLd+s3G12vEkHSzH4ORfk+xeSiYQn+xd5nP2AfIEOyH/YT6l9O0xhBDwdWGDvuOmHfLtevkyCCnzUE/AQOsM+zJaGc2aFtkfa90bfXZ2YqsWn1q3UiGJLlcHitfKlGjCIiACIiACIiACNw8ARVZN89cFkVABERABERABB4BARVZj2CSFaIIiIAIiIAIiMDNE1CRdfPMZVEEREAEREAEROARELjZIusRAFWIIiACIiACIiACItAIqMhSHoiACIiACIiACIjABQioyLoAVKkUAREQAREQAREQARVZygEREAEREAEREAERuAABFVkXgCqVIiACIiACIiACIqAiSzkgAiIgAiIgAiIgAhcgoCLrAlClUgREQAREQAREQARUZCkHREAEREAEREAEROACBFRkXQCqVIqACIiACIiACIjAAyyy8FfD818rR/vVxH9ZWykgAiIgAiIgAiIgApcgoCLrElSlUwREQAREQARE4NETeERF1qOfawEQAREQAREQARG4QQJnK7I++uBqurrif/nrummCzNPnr6ZXz59G+XefT6/WwCF3RW3G5MWzddyz6SNrXE46nas/y9eDxdeFXz6fns4yTddH07OR/2Zzja/yq7lg+ojDB9nL5LQuRUAEREAEREAEHiSBMxRZuTihAuMqvv9kxVMoZkgexYsVK9uFWp6R6xdZ5EPw7en07INUDKIfvq5OjGwvhWdfEGbfdS0CIiACIiACIvCwCJxcZFlxMSo6qJ2LrPY0y/6jJ0X5qVOQs6dNffFluiY8scoyaKfCz4q5VmRxIZQKR34aZb6S/qptdshtXrEOd1ZnIiACIiACIiACD5TAyUUWCqf+J/ZQqHjxAtn+a0AvRlBUlcUbihkq3Pp5gS4qgmYhtNdFVvbf7Ifiqynq9SCurGPxrefQ+6wWERABERABERCBh0bg5CIrAEERhK/U5qMXOyhGUEjx2K7PnjLtG++6UAT5uKUP7VWR5YUg9FiRVTyBgq9LUYUiavSVo7fXRRgs6igCIiACIiACIvCQCJyhyDpUZHixg+JkV5E1xRflp11fFbapQTHldpcJQ7uKrIeUwIpFBERABERABO4qgROLrFhgxeIJRY0XO8cWWROejLWnSTjf/KqwYe7tLvDRfqkiy+O8q5Mtv0RABERABERABG6OwGlFln2l13/d5k+evO/oIsueXj2bnq2/IiIWchUoFFO56EH7uYssf+JWv9wOu9mfyne1iYAIiIAIiIAIPBQCZyqyqHCZyaCwaO8jeXFxfJFFBUx6v2s8AW47vgNVtG8UifvfyZr8KdvV1RSLQLeJl/1Nb/dC/Tgi9YiACIiACIiACNw/AqcVWfTeVPxFpP6y96lFln1N2Iqsg18VtgmgwmZ9AX8ptrzdiq9zFVnNav7lqqvt/HuyXM6f8N2/tJHHIiACIiACIiAChwicXGQ1A3hCxYVWK2TQjqIG1/Fpz+LiuM/f+6rGlQHi/a0bLLJmP6xooyIz/XSiiqxyxtQoAiIgAiIgAg+OwFmKrMtSQZHlXzte1p60i4AIiIAIiIAIiMDpBO58kWVPfnZ9VXg6EGkQAREQAREQAREQgXMQuKNFlr8/ha8g8ZXjOYKWDhEQAREQAREQARG4NIF7UWTtfhfr0rSkXwREQAREQAREQAR2ErijRdZO7yUmAiIgAiIgAiIgAneUgIqsOzoxcksEREAEREAEROB+E1CRdb/nT96LgAiIgAiIgAjcUQIqsu7oxMgtERABERABERCB+01ARdb9nj95LwIiIAIiIAIicEcJqMi6oxMjt0RABERABERABO43gf8PTU1wCacXy9wAAAAASUVORK5CYII=;" vertex="1" parent="1">
          <mxGeometry x="303.57" y="429" width="224.43" height="59" as="geometry"/>
        </mxCell>
        <mxCell id="T-BZHEUO0suJNMSSYHIq-9" value="" style="shape=image;verticalLabelPosition=bottom;labelBackgroundColor=#ffffff;verticalAlign=top;aspect=fixed;imageAspect=0;image=data:image/png,iVBORw0KGgoAAAANSUhEUgAAAmsAAABGCAYAAACT4dMlAAALNklEQVR4Ae3dwWvb2BbH8f5PXnlRMAQMXWQVbxIYiOliSmEMgTEPxnQzm6LCILIIWTzyYAgDEwYezmJIYchiIAPBbWkNDaRQksbUTZOYPOoSimngPI6kK0uOYkd2R9ZUX4GJ60q+Vx+dxY+r66tbwoYAAggggAACCCCQWoFbqe0ZHUMAAQQQQAABBBAQwhpFgAACCCCAAAIIpFiAsJbii0PXEEAAAQQQQAABwho1gAACCCCAAAIIpFjgi4S1jx8/ytnZmZyenvLCgBqgBqgBaoAaoAaoAa8GNB9pTppkmyisnZ+fy97enjx9+pQXBtQANUANUAPUADVADVxTA5qXNDeNs40d1k5OTvwL8vLlS3nz5o0cHR3xwoAaoAaoAWqAGqAGqAGvBjQfaU4yA1uan+JuY4W1i4sLv9Hj4+O4bbI/AggggAACCCCQKQHNSyawaY6Ks40V1g4PD50GW61WnLbYFwEEEEAAAQQQyKyA5iYNbJqj4mxjhbVms+k09unTpzhtsS8CCCCAAAIIIJBZAc1NGtY0R8XZxgprZhgvTkPsiwACCCCAAAIIZF1gnAxFWMt61XD+CCCAAAIIIJCYAGEtMWoaQgABBBBAAAEE4gsQ1uKbcQQCCCCAAAIIIJCYAGEtMWoaQgABBBBAAAEE4gsQ1uKbcQQCCCCAAAIIIJCYAGEtMWoaQgABBBBAAAEE4gsQ1uKbcQQCCCCAAAIIIJCYAGEtMWoaQgABBBBAAAEE4gsQ1uKbcQQCCCCAAAIIIJCYAGEtMWoaQgABBBBAAAEE4gsQ1uKbcQQCCCCAAAIIIJCYAGEtMWoaQgABBBBAAAEE4gsQ1uKbcQQCCEwq8NyWXC435FWQ0jdVsTeb0rmctLEYx5/UpaL9Wm7GOCiw62VHGqsbMubRgS/iLQIIINAXIKz1LXiHAAJJCZiwtliTldWVKy/7QVmKt90wl1/akk5S/ZoorHVka0n7bBPWkrpetINARgQIaxm50JwmAqkSMGFt2AhWtyH2nIafvFi7vVR1P7ozHal/R1iLtuFTBBCYRICwNokexyKAwHgCNwlrItLZrDi3SvOr/4Qbi4S18YqBoxBAYJQAYW2UEP+PAAJfXuCGYU2eeHPbBkfgLruy/9iW6lzBm/dWkNL3tmy96kb3tdOQdf/Wal6Kdy2pv+5Jc1lHwipSP/EOu+Y2aGd3XWp3i5L35tkV5u5J7edGfz6dOS40D2/gduhJsA85yd8ph7/D64LbJ1sanR2xF/X83P7umD5GnyGfIoDAVyxAWPuKLy6nhkBqBW4U1jRMzTphrLIZmLV22Zb6Ut4dcbtTEUvnvP1Uk/KMBq+CVH9vh0+7XZeKM/8tL8UlS1ZWbak5IagkJec26/Cw1t6sOCGtMFd12/KPz4k/n67blI1VSyqz2oey1Jx5eNtietJ7bkvJCXIFKT+wnTl61pIb/vLzK9K86HfZDWtlKS/mpHBf+2tJZanuf1d/T94hgEBWBAhrWbnSnCcCaRIYFdYu2tL8uSoFDThzdijMHPxadoJa+d/7EprJdnEgG06IC4Qv6crWvzRAlcR+Ehx168nBL+4t1uEja01Z0aC3uCEHoV+l9mTnYUGK8zXZMolMrrkNerEjln7HbHBf92J0/rKcEDe73PTPxQ1rOck/3PE/S9Oloy8IIJC8AGEteXNaRAABE9ZCtw01VIVfhftr0ggMqonsy5qOXs2uyX4oPHmkz21nFGzh1wP3g9aGlPU7o4LPpfddQ2+DNsXW42dtaQSzXuQVjA5r3T9qznlVH0d9gTnGkh0veZqwZv0ViqKRLfIhAghkQ4Cwlo3rzFkikC4BE9ZCS3eY25M5Kd5dkZ12RFgxc8Nmvdufg8t+PKrIrIarH7ZFo5EJSqHbqAGJxk8aDgMjceb7/TlyPWmulrwQWZDS/ZrYv23Jfiuib9eMrJnwVX5wdYkSXbaktqh9mJW1V27H3P3vSd0fsQt0mLcIIJBJAcJaJi87J43AlAVMWPNDUb8/7f+6c8QG53I5e5gwNTACNzgil/uu7qzNZn5Nau32vz/4zg1Gw8KaiOiPGTYtKd9x58n5bc2Uxdo8CNyqNKNk4R8WmLDmH3dN3+3nbs+u9CnYYd4jgEAmBQhrmbzsnDQCUxYYEtZE9IcF7mhWXifWB293mrAWdVsz4pRGjaxdCUbm+yNCpH59r3Mgzccboov2OvPpcnmp/WFubw4LawuycRjRwYiPrvQpYh8+QgCBbAkQ1rJ1vTlbBNIhMDSs6WjWvqw5v9TMSdnMP9OeXzbF1sn6ty1pRNyJ7O1akp8pSfmXffc8DzdkQUeyosLdTeas7a1Leb4Y7oMR3Ftzb7n6wS46rJnRvfJvUfc127KxmJfivCXb3tw8wpoB5i8CCBgBwpqR4C8CCCQnMCqsaU9erXnLXZRDo1L7/3FH3UrLDekGR90umt4TD0r+/C/x55EN/hpUxNxuHTpnrdfwfsl59QcG3T8t58cM/RBmHjfV/7GAA/q/bak5AbMi9VaY2CwLkvfm2On/EtbCRvwLAQRECGtUAQIIJC9wk7AmIiaYhZbO6JklOnRh2cF11vKysNpfBsM5MX+dNV04N7DO2u2SlJx10YbPWev87s6hy90uSuWh+yMB6/tS5LIizVV3Xpsu0Luy2l9nrbvrLtGh68ANrrOWm6kGlv8grCVfjLSIQPoFCGvpv0b0EIGvT+CGYe3626HeEwzmzVMFdJX/mqzvhtb56LsNPsFgyZadVtt7lmdgJOyaOWudJ+tSu+8FtJx5+sCOHJjpaqYlfeqA/6SDmmwH/995gsE9KTmL9+YkN1OS6vKW7Af3YWTNSPIXAQQCAoS1AAZvEUAgSwJtqX+r899W5J/w5NEsXRnOFQEEwgKEtbAH/0IAga9JoKvzxYqy8NBddy14at0n7iOg8o8ageU3gnvwHgEEEEiHAGEtHdeBXiCAwN8i0JPGI/dh7/1ne66IeS5nbu5H2eYB6X+LPF+KAAJfToCw9uUs+SYEEEijgC5q+9iWqj+/bcicszT2nz4hgEDmBQhrmS8BABBAAAEEEEAgzQKEtTRfHfqGAAIIIIAAApkXIKxlvgQAQAABBBBAAIE0CxDW0nx16BsCCCCAAAIIZF6AsJb5EgAAAQQQQAABBNIsQFhL89WhbwgggAACCCCQeQHCWuZLAAAEEEAAAQQQSLMAYS3NV4e+IYAAAggggEDmBRILay9evBBtrNfrZR4dAAQQQAABBBBA4CYCmps0P2mOirPdirOz2ff169dOY+/evTMf8RcBBBBAAAEEEEBgiIDmJg1rmqPibGOFtQ8fPjiNaYPn5+dx2mNfBBBAAAEEEEAgcwKalzQ36UtzVJxtrLCmDbx9+9ZvVBPi+/fv5fT0lBcG1AA1QA1QA9QANUANeDWg+cjckdSgpvkp7jZ2WNOGjo+P5dmzZ35oM4mRv25yxgEHaoAaoAaoAWqAGtAa0LykuWmcbaKwpg1+/vxZzs7OpNVqydHRES8MqAFqgBqgBqgBaoAa8GpA85HmJM1L424Th7VxG+Y4BBBAAAEEEEAAgdEChLXRRuyBAAIIIIAAAghMTYCwNjV6GkYAAQQQQAABBEYLENZGG7EHAggggAACCCAwNQHC2tToaRgBBBBAAAEEEBgtQFgbbcQeCCCAAAIIIIDA1AQIa1Ojp2EEEEAAAQQQQGC0AGFttBF7IIAAAggggAACUxMgrE2NnoYRQAABBBBAAIHRAoS10UbsgQACCCCAAAIITE2AsDY1ehpGAAEEEEAAAQRGCxDWRhuxBwIIIIAAAgggMDUBwtrU6GkYAQQQQAABBBAYLfB/mZYWsE/DCXwAAAAASUVORK5CYII=;" vertex="1" parent="1">
          <mxGeometry x="203" y="499" width="443" height="50.1" as="geometry"/>
        </mxCell>
      </root>
    </mxGraphModel>
  </diagram>
  <diagram id="WYjWbzXAiyYE1nDiY98t" name="Page-2">
    <mxGraphModel dx="782" dy="469" grid="1" gridSize="10" guides="1" tooltips="1" connect="1" arrows="1" fold="1" page="1" pageScale="1" pageWidth="850" pageHeight="1100" math="0" shadow="0">
      <root>
        <mxCell id="kZL7i-PqHE-Cxfp5hJh3-0"/>
        <mxCell id="kZL7i-PqHE-Cxfp5hJh3-1" parent="kZL7i-PqHE-Cxfp5hJh3-0"/>
        <mxCell id="vgBzzUgL9BZXcBiHPAsH-0" value="You are Unique,Nobody can copy you!!" style="text;html=1;strokeColor=none;fillColor=none;align=center;verticalAlign=middle;whiteSpace=wrap;rounded=0;" vertex="1" parent="kZL7i-PqHE-Cxfp5hJh3-1">
          <mxGeometry x="240" y="80" width="320" height="20" as="geometry"/>
        </mxCell>
        <mxCell id="vgBzzUgL9BZXcBiHPAsH-1" value="You are more&amp;nbsp;&lt;br&gt;than your&lt;br&gt;Name.&lt;br&gt;Upload&amp;nbsp;&lt;br&gt;Photo!" style="whiteSpace=wrap;html=1;aspect=fixed;" vertex="1" parent="kZL7i-PqHE-Cxfp5hJh3-1">
          <mxGeometry x="350" y="130" width="80" height="80" as="geometry"/>
        </mxCell>
        <mxCell id="vgBzzUgL9BZXcBiHPAsH-2" value="( Guidance for Photo Upload)" style="text;html=1;strokeColor=none;fillColor=none;align=center;verticalAlign=middle;whiteSpace=wrap;rounded=0;" vertex="1" parent="kZL7i-PqHE-Cxfp5hJh3-1">
          <mxGeometry x="460" y="160" width="170" height="20" as="geometry"/>
        </mxCell>
        <mxCell id="vgBzzUgL9BZXcBiHPAsH-3" value="Upload." style="rounded=1;whiteSpace=wrap;html=1;" vertex="1" parent="kZL7i-PqHE-Cxfp5hJh3-1">
          <mxGeometry x="305" y="250" width="190" height="30" as="geometry"/>
        </mxCell>
      </root>
    </mxGraphModel>
  </diagram>
  <diagram id="JnOi4yiNuLu7i_6fT60b" name="Page-3">
    <mxGraphModel dx="782" dy="469" grid="1" gridSize="10" guides="1" tooltips="1" connect="1" arrows="1" fold="1" page="1" pageScale="1" pageWidth="850" pageHeight="1100" math="0" shadow="0">
      <root>
        <mxCell id="Az_jotmU5rsYU8X5lM-P-0"/>
        <mxCell id="Az_jotmU5rsYU8X5lM-P-1" parent="Az_jotmU5rsYU8X5lM-P-0"/>
        <mxCell id="Az_jotmU5rsYU8X5lM-P-2" value="First Name :&amp;nbsp;" style="text;html=1;strokeColor=none;fillColor=none;align=center;verticalAlign=middle;whiteSpace=wrap;rounded=0;" vertex="1" parent="Az_jotmU5rsYU8X5lM-P-1">
          <mxGeometry x="260" y="70" width="80" height="20" as="geometry"/>
        </mxCell>
        <mxCell id="Az_jotmU5rsYU8X5lM-P-3" value="" style="rounded=1;whiteSpace=wrap;html=1;" vertex="1" parent="Az_jotmU5rsYU8X5lM-P-1">
          <mxGeometry x="340" y="67.5" width="240" height="25" as="geometry"/>
        </mxCell>
        <mxCell id="Az_jotmU5rsYU8X5lM-P-4" value="Last Name :" style="text;html=1;strokeColor=none;fillColor=none;align=center;verticalAlign=middle;whiteSpace=wrap;rounded=0;" vertex="1" parent="Az_jotmU5rsYU8X5lM-P-1">
          <mxGeometry x="260" y="120" width="70" height="20" as="geometry"/>
        </mxCell>
        <mxCell id="Az_jotmU5rsYU8X5lM-P-5" value="" style="rounded=1;whiteSpace=wrap;html=1;" vertex="1" parent="Az_jotmU5rsYU8X5lM-P-1">
          <mxGeometry x="340" y="120" width="240" height="25" as="geometry"/>
        </mxCell>
        <mxCell id="Az_jotmU5rsYU8X5lM-P-6" value="DOB :" style="text;html=1;strokeColor=none;fillColor=none;align=center;verticalAlign=middle;whiteSpace=wrap;rounded=0;" vertex="1" parent="Az_jotmU5rsYU8X5lM-P-1">
          <mxGeometry x="270" y="170" width="40" height="20" as="geometry"/>
        </mxCell>
        <mxCell id="Az_jotmU5rsYU8X5lM-P-7" value="" style="rounded=1;whiteSpace=wrap;html=1;" vertex="1" parent="Az_jotmU5rsYU8X5lM-P-1">
          <mxGeometry x="340" y="235" width="240" height="25" as="geometry"/>
        </mxCell>
        <mxCell id="Az_jotmU5rsYU8X5lM-P-8" value="( Give us an opportunity to be a part of your special day)" style="text;html=1;align=center;verticalAlign=middle;resizable=0;points=[];autosize=1;" vertex="1" parent="Az_jotmU5rsYU8X5lM-P-1">
          <mxGeometry x="305" y="200" width="310" height="20" as="geometry"/>
        </mxCell>
        <mxCell id="sz_Oq42iODbQTtIqqrj9-0" value="Country :" style="text;html=1;strokeColor=none;fillColor=none;align=center;verticalAlign=middle;whiteSpace=wrap;rounded=0;" vertex="1" parent="Az_jotmU5rsYU8X5lM-P-1">
          <mxGeometry x="250" y="240" width="60" height="20" as="geometry"/>
        </mxCell>
        <mxCell id="sz_Oq42iODbQTtIqqrj9-1" value="" style="rounded=1;whiteSpace=wrap;html=1;" vertex="1" parent="Az_jotmU5rsYU8X5lM-P-1">
          <mxGeometry x="340" y="167.5" width="240" height="25" as="geometry"/>
        </mxCell>
        <mxCell id="sz_Oq42iODbQTtIqqrj9-2" value="Submit" style="rounded=1;whiteSpace=wrap;html=1;" vertex="1" parent="Az_jotmU5rsYU8X5lM-P-1">
          <mxGeometry x="390" y="290" width="120" height="30" as="geometry"/>
        </mxCell>
      </root>
    </mxGraphModel>
  </diagram>
  <diagram id="d4F_ioU9cY_q3MWfU3MD" name="Page-4">
    <mxGraphModel dx="782" dy="469" grid="1" gridSize="10" guides="1" tooltips="1" connect="1" arrows="1" fold="1" page="1" pageScale="1" pageWidth="850" pageHeight="1100" math="0" shadow="0">
      <root>
        <mxCell id="qUIrlWnQ3FhF-IEE22e1-0"/>
        <mxCell id="qUIrlWnQ3FhF-IEE22e1-1" parent="qUIrlWnQ3FhF-IEE22e1-0"/>
        <mxCell id="qUIrlWnQ3FhF-IEE22e1-2" value="School Name:" style="text;html=1;strokeColor=none;fillColor=none;align=center;verticalAlign=middle;whiteSpace=wrap;rounded=0;" vertex="1" parent="qUIrlWnQ3FhF-IEE22e1-1">
          <mxGeometry x="240" y="150" width="110" height="20" as="geometry"/>
        </mxCell>
        <mxCell id="qUIrlWnQ3FhF-IEE22e1-3" value="( Type your school name ,spelling as on your marksheet)" style="rounded=1;whiteSpace=wrap;html=1;" vertex="1" parent="qUIrlWnQ3FhF-IEE22e1-1">
          <mxGeometry x="360" y="140" width="300" height="30" as="geometry"/>
        </mxCell>
        <mxCell id="qUIrlWnQ3FhF-IEE22e1-9" value="City :" style="text;html=1;strokeColor=none;fillColor=none;align=center;verticalAlign=middle;whiteSpace=wrap;rounded=0;" vertex="1" parent="qUIrlWnQ3FhF-IEE22e1-1">
          <mxGeometry x="270" y="180" width="60" height="20" as="geometry"/>
        </mxCell>
        <mxCell id="qUIrlWnQ3FhF-IEE22e1-10" value="( Micro seconds to select from the dropdown)" style="rounded=1;whiteSpace=wrap;html=1;" vertex="1" parent="qUIrlWnQ3FhF-IEE22e1-1">
          <mxGeometry x="350" y="180" width="280" height="20" as="geometry"/>
        </mxCell>
        <mxCell id="qUIrlWnQ3FhF-IEE22e1-11" value="Start Date :" style="text;html=1;strokeColor=none;fillColor=none;align=center;verticalAlign=middle;whiteSpace=wrap;rounded=0;" vertex="1" parent="qUIrlWnQ3FhF-IEE22e1-1">
          <mxGeometry x="255" y="220" width="80" height="20" as="geometry"/>
        </mxCell>
        <mxCell id="qUIrlWnQ3FhF-IEE22e1-12" value="End Date :" style="text;html=1;strokeColor=none;fillColor=none;align=center;verticalAlign=middle;whiteSpace=wrap;rounded=0;" vertex="1" parent="qUIrlWnQ3FhF-IEE22e1-1">
          <mxGeometry x="255" y="250" width="80" height="20" as="geometry"/>
        </mxCell>
        <mxCell id="qUIrlWnQ3FhF-IEE22e1-13" value="( Micro seconds to select from the dropdown)" style="rounded=1;whiteSpace=wrap;html=1;" vertex="1" parent="qUIrlWnQ3FhF-IEE22e1-1">
          <mxGeometry x="350" y="220" width="280" height="20" as="geometry"/>
        </mxCell>
        <mxCell id="qUIrlWnQ3FhF-IEE22e1-14" value="( Micro seconds to select from the dropdown)" style="rounded=1;whiteSpace=wrap;html=1;" vertex="1" parent="qUIrlWnQ3FhF-IEE22e1-1">
          <mxGeometry x="350" y="250" width="280" height="20" as="geometry"/>
        </mxCell>
        <mxCell id="yzfcWYv_BAqNoh2OAONq-0" value="Program:" style="text;html=1;strokeColor=none;fillColor=none;align=center;verticalAlign=middle;whiteSpace=wrap;rounded=0;" vertex="1" parent="qUIrlWnQ3FhF-IEE22e1-1">
          <mxGeometry x="255" y="290" width="70" height="20" as="geometry"/>
        </mxCell>
        <mxCell id="yzfcWYv_BAqNoh2OAONq-1" value="( Micro seconds to select from the dropdown)" style="rounded=1;whiteSpace=wrap;html=1;" vertex="1" parent="qUIrlWnQ3FhF-IEE22e1-1">
          <mxGeometry x="350" y="290" width="280" height="20" as="geometry"/>
        </mxCell>
        <mxCell id="z3lmZK9x_z5aQnW_akvd-0" value="Submit" style="rounded=1;whiteSpace=wrap;html=1;" vertex="1" parent="qUIrlWnQ3FhF-IEE22e1-1">
          <mxGeometry x="430" y="340" width="120" height="30" as="geometry"/>
        </mxCell>
      </root>
    </mxGraphModel>
  </diagram>
  <diagram id="wQCcMUujzE2f81Ne3yhk" name="Page-5">
    <mxGraphModel dx="782" dy="469" grid="1" gridSize="10" guides="1" tooltips="1" connect="1" arrows="1" fold="1" page="1" pageScale="1" pageWidth="850" pageHeight="1100" math="0" shadow="0">
      <root>
        <mxCell id="thxonC665XAKEZK2kEX2-0"/>
        <mxCell id="thxonC665XAKEZK2kEX2-1" parent="thxonC665XAKEZK2kEX2-0"/>
        <mxCell id="AS5o1ngReLLgfsUF8z3V-0" value="College:" style="text;html=1;strokeColor=none;fillColor=none;align=center;verticalAlign=middle;whiteSpace=wrap;rounded=0;" vertex="1" parent="thxonC665XAKEZK2kEX2-1">
          <mxGeometry x="250" y="180" width="40" height="20" as="geometry"/>
        </mxCell>
        <mxCell id="AS5o1ngReLLgfsUF8z3V-1" value="" style="rounded=1;whiteSpace=wrap;html=1;" vertex="1" parent="thxonC665XAKEZK2kEX2-1">
          <mxGeometry x="330" y="120" width="240" height="30" as="geometry"/>
        </mxCell>
        <mxCell id="AS5o1ngReLLgfsUF8z3V-2" value="University:" style="text;html=1;strokeColor=none;fillColor=none;align=center;verticalAlign=middle;whiteSpace=wrap;rounded=0;" vertex="1" parent="thxonC665XAKEZK2kEX2-1">
          <mxGeometry x="240" y="130" width="40" height="20" as="geometry"/>
        </mxCell>
        <mxCell id="AS5o1ngReLLgfsUF8z3V-3" value="" style="rounded=1;whiteSpace=wrap;html=1;" vertex="1" parent="thxonC665XAKEZK2kEX2-1">
          <mxGeometry x="330" y="160" width="240" height="30" as="geometry"/>
        </mxCell>
        <mxCell id="AS5o1ngReLLgfsUF8z3V-6" value="Program:" style="text;html=1;strokeColor=none;fillColor=none;align=center;verticalAlign=middle;whiteSpace=wrap;rounded=0;" vertex="1" parent="thxonC665XAKEZK2kEX2-1">
          <mxGeometry x="250" y="220" width="40" height="20" as="geometry"/>
        </mxCell>
        <mxCell id="AS5o1ngReLLgfsUF8z3V-7" value="" style="rounded=1;whiteSpace=wrap;html=1;" vertex="1" parent="thxonC665XAKEZK2kEX2-1">
          <mxGeometry x="330" y="210" width="240" height="30" as="geometry"/>
        </mxCell>
        <mxCell id="AS5o1ngReLLgfsUF8z3V-8" value="Course:" style="text;html=1;strokeColor=none;fillColor=none;align=center;verticalAlign=middle;whiteSpace=wrap;rounded=0;" vertex="1" parent="thxonC665XAKEZK2kEX2-1">
          <mxGeometry x="260" y="260" width="40" height="20" as="geometry"/>
        </mxCell>
        <mxCell id="AS5o1ngReLLgfsUF8z3V-9" value="" style="rounded=1;whiteSpace=wrap;html=1;" vertex="1" parent="thxonC665XAKEZK2kEX2-1">
          <mxGeometry x="330" y="250" width="240" height="30" as="geometry"/>
        </mxCell>
        <mxCell id="AS5o1ngReLLgfsUF8z3V-12" value="Start Date:" style="text;html=1;strokeColor=none;fillColor=none;align=center;verticalAlign=middle;whiteSpace=wrap;rounded=0;" vertex="1" parent="thxonC665XAKEZK2kEX2-1">
          <mxGeometry x="230" y="300" width="70" height="20" as="geometry"/>
        </mxCell>
        <mxCell id="AS5o1ngReLLgfsUF8z3V-13" value="" style="rounded=1;whiteSpace=wrap;html=1;" vertex="1" parent="thxonC665XAKEZK2kEX2-1">
          <mxGeometry x="330" y="295" width="240" height="30" as="geometry"/>
        </mxCell>
        <mxCell id="AS5o1ngReLLgfsUF8z3V-14" value="End Date:" style="text;html=1;strokeColor=none;fillColor=none;align=center;verticalAlign=middle;whiteSpace=wrap;rounded=0;" vertex="1" parent="thxonC665XAKEZK2kEX2-1">
          <mxGeometry x="230" y="350" width="70" height="20" as="geometry"/>
        </mxCell>
        <mxCell id="AS5o1ngReLLgfsUF8z3V-15" value="" style="rounded=1;whiteSpace=wrap;html=1;" vertex="1" parent="thxonC665XAKEZK2kEX2-1">
          <mxGeometry x="330" y="345" width="240" height="30" as="geometry"/>
        </mxCell>
        <mxCell id="1ojSolDCFzupA56d-I_r-0" value="Submit" style="rounded=1;whiteSpace=wrap;html=1;" vertex="1" parent="thxonC665XAKEZK2kEX2-1">
          <mxGeometry x="380" y="400" width="120" height="30" as="geometry"/>
        </mxCell>
      </root>
    </mxGraphModel>
  </diagram>
</mxfile>
